<svg xmlns="http://www.w3.org/2000/svg" viewBox="0 0 840 410" width="840" height="410" role="img" aria-labelledby="t2 d2">
  <title id="t2">What jitter does to a service coming back up</title>
  <desc id="d2">Two dot plots on the same time axis. Forty clients fail at the same instant and each waits before trying again. In the upper plot every client waits exactly the same time, so all forty land on one moment as a single tall column. In the lower plot each wait is multiplied by a random amount between a half and one and a half, so arrivals spread across a wide band and at most eight land together. The service that was recovering sees a spike in the first case and a trickle in the second.</desc>
  <defs>
    <style>
      .cap { font: 600 14px "Segoe UI", system-ui, -apple-system, Roboto, sans-serif; fill: #1b2430; }
      .sub { font: 13px "Segoe UI", system-ui, sans-serif; fill: #5a6b81; }
      .ttl { font: 600 17px "Segoe UI", system-ui, sans-serif; fill: #1b2430; }
      .num { font: 700 15px "Segoe UI", system-ui, sans-serif; }
    </style>
  </defs>
  <rect class="bg" x="0" y="0" width="840" height="410" fill="#ffffff"/>
  <text class="ttl" x="420" y="30" text-anchor="middle" dominant-baseline="middle">Forty clients fail together. When do they come back?</text>

  <text class="cap" x="40" y="76" dominant-baseline="middle" fill="#b3541e">all waiting the same time</text>
  <circle cx="514" cy="200" r="3.1" fill="#f8dcc0" stroke="#b3541e" stroke-width="1"/>
    <circle cx="514" cy="197" r="3.1" fill="#f8dcc0" stroke="#b3541e" stroke-width="1"/>
    <circle cx="514" cy="194" r="3.1" fill="#f8dcc0" stroke="#b3541e" stroke-width="1"/>
    <circle cx="514" cy="190" r="3.1" fill="#f8dcc0" stroke="#b3541e" stroke-width="1"/>
    <circle cx="514" cy="187" r="3.1" fill="#f8dcc0" stroke="#b3541e" stroke-width="1"/>
    <circle cx="514" cy="184" r="3.1" fill="#f8dcc0" stroke="#b3541e" stroke-width="1"/>
    <circle cx="514" cy="181" r="3.1" fill="#f8dcc0" stroke="#b3541e" stroke-width="1"/>
    <circle cx="514" cy="178" r="3.1" fill="#f8dcc0" stroke="#b3541e" stroke-width="1"/>
    <circle cx="514" cy="174" r="3.1" fill="#f8dcc0" stroke="#b3541e" stroke-width="1"/>
    <circle cx="514" cy="171" r="3.1" fill="#f8dcc0" stroke="#b3541e" stroke-width="1"/>
    <circle cx="514" cy="168" r="3.1" fill="#f8dcc0" stroke="#b3541e" stroke-width="1"/>
    <circle cx="514" cy="165" r="3.1" fill="#f8dcc0" stroke="#b3541e" stroke-width="1"/>
    <circle cx="514" cy="162" r="3.1" fill="#f8dcc0" stroke="#b3541e" stroke-width="1"/>
    <circle cx="514" cy="158" r="3.1" fill="#f8dcc0" stroke="#b3541e" stroke-width="1"/>
    <circle cx="514" cy="155" r="3.1" fill="#f8dcc0" stroke="#b3541e" stroke-width="1"/>
    <circle cx="514" cy="152" r="3.1" fill="#f8dcc0" stroke="#b3541e" stroke-width="1"/>
    <circle cx="514" cy="149" r="3.1" fill="#f8dcc0" stroke="#b3541e" stroke-width="1"/>
    <circle cx="514" cy="146" r="3.1" fill="#f8dcc0" stroke="#b3541e" stroke-width="1"/>
    <circle cx="514" cy="142" r="3.1" fill="#f8dcc0" stroke="#b3541e" stroke-width="1"/>
    <circle cx="514" cy="139" r="3.1" fill="#f8dcc0" stroke="#b3541e" stroke-width="1"/>
    <circle cx="514" cy="136" r="3.1" fill="#f8dcc0" stroke="#b3541e" stroke-width="1"/>
    <circle cx="514" cy="133" r="3.1" fill="#f8dcc0" stroke="#b3541e" stroke-width="1"/>
    <circle cx="514" cy="130" r="3.1" fill="#f8dcc0" stroke="#b3541e" stroke-width="1"/>
    <circle cx="514" cy="126" r="3.1" fill="#f8dcc0" stroke="#b3541e" stroke-width="1"/>
    <circle cx="514" cy="123" r="3.1" fill="#f8dcc0" stroke="#b3541e" stroke-width="1"/>
    <circle cx="514" cy="120" r="3.1" fill="#f8dcc0" stroke="#b3541e" stroke-width="1"/>
    <circle cx="514" cy="117" r="3.1" fill="#f8dcc0" stroke="#b3541e" stroke-width="1"/>
    <circle cx="514" cy="114" r="3.1" fill="#f8dcc0" stroke="#b3541e" stroke-width="1"/>
    <circle cx="514" cy="110" r="3.1" fill="#f8dcc0" stroke="#b3541e" stroke-width="1"/>
    <circle cx="514" cy="107" r="3.1" fill="#f8dcc0" stroke="#b3541e" stroke-width="1"/>
    <circle cx="514" cy="104" r="3.1" fill="#f8dcc0" stroke="#b3541e" stroke-width="1"/>
    <circle cx="514" cy="101" r="3.1" fill="#f8dcc0" stroke="#b3541e" stroke-width="1"/>
    <circle cx="514" cy="98" r="3.1" fill="#f8dcc0" stroke="#b3541e" stroke-width="1"/>
    <circle cx="514" cy="94" r="3.1" fill="#f8dcc0" stroke="#b3541e" stroke-width="1"/>
    <circle cx="514" cy="91" r="3.1" fill="#f8dcc0" stroke="#b3541e" stroke-width="1"/>
    <circle cx="514" cy="88" r="3.1" fill="#f8dcc0" stroke="#b3541e" stroke-width="1"/>
    <circle cx="514" cy="85" r="3.1" fill="#f8dcc0" stroke="#b3541e" stroke-width="1"/>
    <circle cx="514" cy="82" r="3.1" fill="#f8dcc0" stroke="#b3541e" stroke-width="1"/>
    <circle cx="514" cy="78" r="3.1" fill="#f8dcc0" stroke="#b3541e" stroke-width="1"/>
    <circle cx="514" cy="75" r="3.1" fill="#f8dcc0" stroke="#b3541e" stroke-width="1"/>
  <path d="M120 210 H760" stroke="#8a97a8" stroke-width="1.6" stroke-linecap="round"/>
  <text class="num" x="566" y="140" dominant-baseline="middle" fill="#b3541e">40 at once</text>

  <text class="cap" x="40" y="256" dominant-baseline="middle" fill="#2f6b46">each waiting a random amount</text>
  <circle cx="325" cy="316" r="3.1" fill="#cfe7d8" stroke="#2f6b46" stroke-width="1"/>
    <circle cx="327" cy="310" r="3.1" fill="#cfe7d8" stroke="#2f6b46" stroke-width="1"/>
    <circle cx="330" cy="304" r="3.1" fill="#cfe7d8" stroke="#2f6b46" stroke-width="1"/>
    <circle cx="350" cy="316" r="3.1" fill="#cfe7d8" stroke="#2f6b46" stroke-width="1"/>
    <circle cx="358" cy="316" r="3.1" fill="#cfe7d8" stroke="#2f6b46" stroke-width="1"/>
    <circle cx="361" cy="310" r="3.1" fill="#cfe7d8" stroke="#2f6b46" stroke-width="1"/>
    <circle cx="361" cy="304" r="3.1" fill="#cfe7d8" stroke="#2f6b46" stroke-width="1"/>
    <circle cx="369" cy="316" r="3.1" fill="#cfe7d8" stroke="#2f6b46" stroke-width="1"/>
    <circle cx="388" cy="316" r="3.1" fill="#cfe7d8" stroke="#2f6b46" stroke-width="1"/>
    <circle cx="400" cy="316" r="3.1" fill="#cfe7d8" stroke="#2f6b46" stroke-width="1"/>
    <circle cx="450" cy="316" r="3.1" fill="#cfe7d8" stroke="#2f6b46" stroke-width="1"/>
    <circle cx="453" cy="316" r="3.1" fill="#cfe7d8" stroke="#2f6b46" stroke-width="1"/>
    <circle cx="461" cy="316" r="3.1" fill="#cfe7d8" stroke="#2f6b46" stroke-width="1"/>
    <circle cx="461" cy="310" r="3.1" fill="#cfe7d8" stroke="#2f6b46" stroke-width="1"/>
    <circle cx="469" cy="316" r="3.1" fill="#cfe7d8" stroke="#2f6b46" stroke-width="1"/>
    <circle cx="472" cy="310" r="3.1" fill="#cfe7d8" stroke="#2f6b46" stroke-width="1"/>
    <circle cx="481" cy="316" r="3.1" fill="#cfe7d8" stroke="#2f6b46" stroke-width="1"/>
    <circle cx="483" cy="310" r="3.1" fill="#cfe7d8" stroke="#2f6b46" stroke-width="1"/>
    <circle cx="499" cy="316" r="3.1" fill="#cfe7d8" stroke="#2f6b46" stroke-width="1"/>
    <circle cx="506" cy="316" r="3.1" fill="#cfe7d8" stroke="#2f6b46" stroke-width="1"/>
    <circle cx="507" cy="310" r="3.1" fill="#cfe7d8" stroke="#2f6b46" stroke-width="1"/>
    <circle cx="509" cy="316" r="3.1" fill="#cfe7d8" stroke="#2f6b46" stroke-width="1"/>
    <circle cx="513" cy="310" r="3.1" fill="#cfe7d8" stroke="#2f6b46" stroke-width="1"/>
    <circle cx="520" cy="316" r="3.1" fill="#cfe7d8" stroke="#2f6b46" stroke-width="1"/>
    <circle cx="522" cy="310" r="3.1" fill="#cfe7d8" stroke="#2f6b46" stroke-width="1"/>
    <circle cx="522" cy="304" r="3.1" fill="#cfe7d8" stroke="#2f6b46" stroke-width="1"/>
    <circle cx="526" cy="316" r="3.1" fill="#cfe7d8" stroke="#2f6b46" stroke-width="1"/>
    <circle cx="555" cy="316" r="3.1" fill="#cfe7d8" stroke="#2f6b46" stroke-width="1"/>
    <circle cx="581" cy="316" r="3.1" fill="#cfe7d8" stroke="#2f6b46" stroke-width="1"/>
    <circle cx="583" cy="310" r="3.1" fill="#cfe7d8" stroke="#2f6b46" stroke-width="1"/>
    <circle cx="593" cy="316" r="3.1" fill="#cfe7d8" stroke="#2f6b46" stroke-width="1"/>
    <circle cx="617" cy="316" r="3.1" fill="#cfe7d8" stroke="#2f6b46" stroke-width="1"/>
    <circle cx="623" cy="316" r="3.1" fill="#cfe7d8" stroke="#2f6b46" stroke-width="1"/>
    <circle cx="631" cy="316" r="3.1" fill="#cfe7d8" stroke="#2f6b46" stroke-width="1"/>
    <circle cx="631" cy="310" r="3.1" fill="#cfe7d8" stroke="#2f6b46" stroke-width="1"/>
    <circle cx="641" cy="316" r="3.1" fill="#cfe7d8" stroke="#2f6b46" stroke-width="1"/>
    <circle cx="654" cy="316" r="3.1" fill="#cfe7d8" stroke="#2f6b46" stroke-width="1"/>
    <circle cx="674" cy="316" r="3.1" fill="#cfe7d8" stroke="#2f6b46" stroke-width="1"/>
    <circle cx="694" cy="316" r="3.1" fill="#cfe7d8" stroke="#2f6b46" stroke-width="1"/>
    <circle cx="694" cy="310" r="3.1" fill="#cfe7d8" stroke="#2f6b46" stroke-width="1"/>
  <path d="M120 326 H760" stroke="#8a97a8" stroke-width="1.6" stroke-linecap="round"/>
  <text class="num" x="700" y="284" dominant-baseline="middle" fill="#2f6b46">8 at most</text>

  <text class="sub" x="120" y="348" dominant-baseline="middle">the moment they failed</text>
  <text class="sub" x="760" y="348" text-anchor="end" dominant-baseline="middle">one and a bit seconds later</text>
  <text class="sub" x="420" y="386" text-anchor="middle" dominant-baseline="middle">the lower one is the difference between a service recovering and falling over again</text>
</svg>
